<?xml version="1.0" standalone="no"?>
<!DOCTYPE svg PUBLIC "-//W3C//DTD SVG 20010904//EN"
 "http://www.w3.org/TR/2001/REC-SVG-20010904/DTD/svg10.dtd">
<svg version="1.0" xmlns="http://www.w3.org/2000/svg"
 width="2048.000000pt" height="2048.000000pt" viewBox="0 0 2048.000000 2048.000000"
 preserveAspectRatio="xMidYMid meet">
<metadata>
Created by potrace 1.11, written by Peter Selinger 2001-2013
</metadata>
<g transform="translate(0.000000,2048.000000) scale(0.100000,-0.100000)"
fill="#000000" stroke="none">
<path d="M13805 14630 c-116 -21 -416 -98 -525 -135 -107 -36 -147 -88 -100
-130 17 -15 32 -16 127 -10 103 6 110 5 143 -17 72 -48 101 -169 60 -246 -133
-251 -435 -592 -650 -736 -197 -132 -426 -247 -539 -271 l-34 -7 6 33 c9 56
36 296 47 429 16 183 40 287 116 485 18 50 40 126 49 169 14 74 14 82 -3 110
-26 44 -93 92 -157 112 l-54 17 -68 -30 c-37 -17 -102 -41 -143 -53 -100 -29
-210 -81 -239 -113 -27 -30 -34 -72 -50 -317 -21 -312 -31 -590 -30 -805 1
-121 1 -256 1 -300 0 -44 8 -199 19 -344 19 -262 25 -398 16 -407 -2 -2 -87
29 -188 71 -101 41 -481 190 -844 330 -721 280 -862 337 -976 396 -77 40 -156
109 -145 127 10 16 161 68 481 163 361 108 344 102 730 229 496 163 656 256
696 404 26 95 -43 230 -160 318 -89 66 -279 158 -431 208 -247 82 -657 178
-940 219 -373 56 -816 72 -996 39 -255 -48 -406 -136 -421 -244 -3 -29 17
-120 77 -344 184 -692 214 -881 145 -926 -24 -16 -115 -47 -115 -39 0 2 27 16
60 31 66 30 74 49 29 71 -41 20 -223 46 -364 52 l-130 6 -18 135 c-17 128 -33
211 -92 485 -40 186 -76 264 -201 431 -36 49 -70 96 -75 106 -5 9 -26 26 -46
39 -21 12 -78 55 -128 94 -129 103 -140 109 -245 140 -124 35 -225 42 -310 21
-79 -20 -237 -111 -303 -175 -62 -59 -148 -180 -182 -256 -30 -67 -66 -195
-56 -195 4 0 41 30 82 68 41 37 92 76 114 86 22 11 44 22 49 25 12 6 3 -9 -62
-102 -30 -43 -77 -129 -104 -190 -43 -98 -177 -495 -208 -617 -6 -25 -25 -89
-42 -142 -31 -94 -33 -98 -61 -98 -75 0 -137 -61 -137 -136 0 -46 23 -119 44
-144 12 -13 10 -36 -19 -160 -18 -80 -40 -172 -48 -205 -9 -33 -21 -109 -27
-170 -5 -60 -15 -137 -20 -170 -5 -33 -10 -80 -11 -105 l-1 -45 -10 40 c-5 22
-11 254 -14 515 -6 447 -4 500 23 910 42 653 35 832 -42 987 -40 80 -57 96
-125 114 -59 15 -103 7 -170 -34 -87 -52 -113 -105 -195 -397 -40 -142 -54
-177 -106 -263 -121 -200 -299 -401 -400 -451 -141 -68 -270 -32 -347 97 -42
69 -159 351 -179 432 -15 57 -17 152 -11 395 1 61 -3 83 -22 120 -29 58 -36
62 -90 55 l-45 -6 0 62 0 61 -53 49 c-52 48 -55 49 -115 49 -42 0 -83 -8 -128
-25 -63 -24 -68 -29 -113 -100 -26 -41 -51 -89 -57 -107 -14 -49 -11 -247 6
-409 8 -79 14 -180 13 -224 -4 -100 11 -1126 16 -1134 2 -3 -1 -33 -6 -66 -5
-33 -9 -163 -9 -290 1 -215 2 -233 24 -282 22 -52 23 -53 110 -88 78 -31 97
-35 181 -35 91 0 96 1 137 33 34 25 49 48 75 112 20 49 33 98 33 127 l1 47
-80 61 c-90 68 -100 81 -130 163 -21 57 -21 61 -10 360 17 458 30 575 62 561
7 -3 45 -52 83 -110 82 -124 172 -207 284 -262 110 -54 165 -52 291 10 168 82
422 327 580 556 49 73 50 74 50 39 0 -267 68 -1168 104 -1379 14 -79 29 -195
35 -259 24 -257 114 -485 208 -524 47 -20 49 -19 60 13 37 101 83 252 83 270
0 32 18 36 22 5 3 -27 6 -28 72 -36 61 -6 76 -13 145 -62 43 -29 102 -83 132
-119 30 -36 57 -66 61 -66 6 0 21 45 48 149 9 34 8 81 -5 220 -20 215 -9 421
32 559 13 45 26 82 28 82 3 0 27 -33 54 -74 63 -93 353 -368 466 -442 114 -74
345 -201 445 -245 103 -45 411 -122 496 -123 50 -1 67 4 103 27 52 35 97 103
111 171 8 41 7 62 -6 106 -35 122 -44 224 -50 590 -3 241 -10 395 -20 453 -8
48 -14 89 -14 91 0 3 37 4 83 3 45 -1 111 2 146 6 59 8 63 7 56 -10 -18 -42
-17 -83 4 -116 17 -27 43 -45 125 -82 101 -47 105 -50 111 -84 10 -64 34 -372
41 -526 8 -174 10 -179 108 -226 71 -34 149 -51 208 -47 40 3 43 5 55 46 7 24
24 137 38 250 14 114 28 218 31 232 14 65 37 120 49 120 7 0 172 -54 367 -121
933 -319 1061 -363 1178 -398 69 -21 409 -109 755 -195 658 -163 768 -184 834
-156 55 22 39 41 -89 105 -106 52 -120 62 -120 85 0 14 -10 131 -22 260 -16
177 -21 291 -19 460 2 124 4 226 6 228 1 2 30 -8 64 -22 57 -23 185 -107 457
-301 55 -39 186 -122 290 -185 104 -62 209 -125 234 -141 122 -75 378 -183
515 -218 147 -37 628 -119 790 -136 88 -8 322 -20 520 -26 386 -11 427 -8 450
36 9 18 18 20 95 17 97 -3 336 21 424 44 59 15 357 114 366 121 6 6 -33 75
-46 80 -6 2 -44 -12 -85 -32 -40 -19 -83 -35 -95 -35 -26 0 -74 36 -74 55 0 8
-13 21 -30 30 -24 12 -42 13 -98 5 -42 -6 -90 -6 -123 -1 -161 27 -206 50
-258 128 -34 51 -35 76 -3 119 16 21 145 111 235 164 20 12 42 30 47 41 6 10
18 19 27 19 24 0 112 69 128 100 9 18 30 33 57 43 69 25 20 19 -167 -18 -209
-41 -295 -69 -412 -132 -265 -141 -385 -283 -387 -461 -1 -42 4 -54 44 -101
25 -29 61 -62 80 -72 l35 -20 -35 5 c-19 3 -93 15 -165 25 -137 21 -447 83
-626 125 -58 14 -150 45 -205 69 -54 24 -117 50 -139 57 -76 25 -393 203 -521
294 -71 50 -174 134 -229 188 -55 53 -143 132 -195 176 -52 44 -132 116 -178
160 -107 103 -107 108 12 174 48 27 134 84 190 126 55 43 144 107 196 142 64
44 149 119 265 236 93 93 184 182 201 196 18 14 61 63 97 110 37 47 105 127
152 179 47 52 98 119 113 149 24 49 27 66 27 157 0 113 -1 116 -70 152 -35 19
-56 21 -185 20 -90 -1 -183 -8 -245 -19z m-4395 -420 c724 -44 1303 -179 1473
-342 60 -57 60 -79 3 -133 -105 -101 -676 -324 -1256 -491 l-164 -47 -36 19
c-32 18 -35 23 -32 59 2 22 25 108 51 190 58 181 75 268 68 345 -9 103 -55
151 -161 171 -69 12 -146 -1 -223 -38 -62 -31 -92 -26 -140 22 -31 31 -33 38
-33 97 0 74 8 85 83 118 40 18 112 33 187 39 8 0 89 -4 180 -9z m-2006 -109
c83 -48 216 -185 258 -266 57 -109 134 -304 157 -396 11 -46 27 -104 36 -128
15 -43 24 -175 12 -187 -12 -12 -305 -45 -487 -54 -476 -24 -480 -25 -480 -6
0 10 27 86 60 171 33 85 60 157 60 160 0 23 80 200 115 255 23 36 71 115 107
175 63 105 67 115 79 208 7 53 17 97 22 97 5 0 33 -13 61 -29z m497 -1386 c1
-234 -7 -342 -42 -557 -16 -97 -29 -179 -29 -182 0 -4 -52 -6 -117 -6 -129 0
-123 -2 -275 97 -144 93 -297 239 -408 388 -82 110 -152 223 -145 234 2 5 20
12 38 15 18 3 101 26 183 51 82 25 205 56 274 70 160 33 503 83 512 75 4 -3 8
-87 9 -185z"/>
<path d="M16725 14635 c-92 -20 -401 -129 -543 -191 -266 -116 -500 -255 -605
-358 -94 -95 -161 -232 -183 -378 -12 -80 -11 -93 5 -141 28 -81 43 -105 119
-193 66 -76 208 -192 279 -228 77 -39 327 -194 428 -265 103 -73 168 -101 181
-79 13 21 54 6 92 -36 74 -80 194 -286 197 -337 2 -22 11 -45 24 -58 34 -34
28 -74 -21 -121 -23 -22 -50 -42 -60 -46 -10 -3 -18 -11 -18 -19 0 -19 55 -75
75 -75 25 0 345 191 437 261 119 91 135 130 99 234 -22 64 -16 57 -293 317
-98 92 -241 196 -679 494 -169 116 -239 180 -306 281 -35 51 -35 52 -23 110
27 126 108 238 236 322 91 60 190 99 206 83 15 -15 -17 -51 -82 -95 -64 -42
-100 -78 -100 -97 0 -32 48 -65 93 -64 55 2 211 60 367 138 136 68 354 201
385 236 30 33 34 163 7 216 -11 21 -28 47 -39 56 -52 48 -157 60 -278 33z"/>
<path d="M14793 14235 c-58 -25 -63 -43 -63 -231 1 -186 -1 -213 -32 -357 -23
-107 -19 -123 26 -111 59 14 75 47 147 284 70 233 96 347 86 374 -9 24 -68 56
-102 56 -16 -1 -44 -7 -62 -15z"/>
<path d="M16444 12725 l6 -50 -32 38 c-18 20 -36 37 -40 37 -5 0 -8 -14 -8
-32 l0 -31 -26 24 -27 24 6 -23 c4 -18 2 -22 -9 -18 -8 3 -21 9 -30 13 -17 6
-17 -10 2 -64 5 -12 -6 -6 -29 16 -40 38 -43 37 -26 -6 l10 -28 -23 23 c-32
29 -40 28 -32 -5 l7 -28 -25 23 c-32 29 -39 28 -31 -8 5 -26 3 -30 -16 -30
-18 0 -19 -3 -11 -25 11 -28 -1 -33 -20 -10 -19 23 -27 18 -23 -17 4 -30 3
-31 -10 -15 -20 24 -27 21 -27 -9 0 -26 -1 -26 -25 -10 -30 19 -30 18 -9 -81
28 -137 140 -313 199 -313 19 0 23 -5 22 -26 -4 -52 23 -52 124 -1 51 26 93
46 94 45 30 -34 83 -123 79 -132 -3 -7 1 -26 8 -42 6 -16 12 -72 13 -124 0
-81 4 -101 24 -137 13 -23 37 -47 53 -54 30 -12 78 -63 78 -82 0 -7 14 -39 30
-71 17 -32 30 -71 30 -87 0 -39 16 -75 50 -120 17 -21 45 -81 64 -139 24 -71
51 -127 89 -184 30 -44 63 -97 72 -116 36 -72 68 -102 142 -135 40 -19 104
-54 142 -79 132 -85 370 -206 436 -221 57 -13 255 -34 327 -35 43 0 52 -29 49
-167 -2 -107 1 -131 23 -195 14 -40 35 -116 46 -168 13 -56 32 -111 47 -133
l26 -37 -17 -83 c-38 -196 -76 -626 -83 -947 -7 -314 5 -454 52 -633 68 -258
78 -347 80 -717 1 -259 4 -313 19 -355 9 -27 25 -106 36 -175 11 -69 27 -163
35 -210 9 -47 20 -166 25 -265 l9 -180 -31 -25 c-92 -73 -120 -106 -133 -155
-7 -28 -10 -53 -6 -57 3 -4 125 -11 271 -16 254 -8 466 -3 502 13 30 12 33 72
10 190 -34 176 -38 243 -16 306 29 84 27 339 -3 429 -21 62 -22 85 -27 490 -3
234 -8 472 -12 530 -6 95 -6 104 9 92 20 -17 72 -159 87 -238 6 -32 15 -144
20 -249 10 -214 24 -280 75 -364 30 -49 36 -68 44 -156 8 -91 14 -109 61 -205
l51 -105 -6 -190 c-4 -113 -3 -207 3 -232 11 -50 -6 -85 -73 -148 -57 -52 -70
-108 -34 -138 23 -19 35 -19 229 -13 228 6 299 20 326 61 10 15 14 35 10 52
-9 44 19 214 43 261 35 68 42 128 26 228 -24 157 -93 523 -140 749 -43 206
-46 226 -39 310 4 50 7 173 6 275 -3 175 -4 190 -34 290 -23 75 -32 123 -31
170 1 36 4 178 8 316 6 205 4 273 -9 379 -17 130 -43 226 -76 280 -26 43 -50
131 -50 184 0 65 25 160 55 217 23 42 26 57 21 104 -9 91 6 88 57 -15 70 -140
74 -167 81 -515 8 -364 13 -405 58 -442 l33 -26 -12 -56 c-7 -31 -23 -79 -37
-107 -31 -61 -32 -69 -6 -69 16 0 19 -5 14 -30 -5 -24 -3 -30 10 -30 9 0 19 7
22 15 5 13 9 13 21 3 13 -10 19 -8 33 10 l19 22 3 -22 c5 -40 34 -33 72 19 40
53 66 127 66 184 0 31 5 40 33 56 l32 19 32 205 c52 330 57 389 44 520 -7 63
-16 175 -21 249 -9 145 -25 215 -91 400 -22 63 -61 171 -85 239 -123 345 -252
532 -427 615 -106 50 -170 65 -315 73 -109 5 -128 9 -151 29 -35 30 -37 99 -2
123 68 48 110 96 154 178 28 55 56 95 72 103 14 7 37 38 51 67 25 50 26 60 22
171 -5 124 -16 164 -65 235 -37 53 -166 154 -242 190 -85 40 -128 39 -212 -6
-119 -63 -282 -73 -415 -26 -77 27 -94 19 -94 -45 1 -105 84 -190 207 -211
l41 -6 -21 -49 c-17 -41 -26 -49 -61 -60 -23 -7 -49 -19 -58 -28 -24 -21 -23
-58 3 -76 43 -30 48 -46 34 -112 -7 -34 -20 -85 -29 -112 -21 -62 -19 -67 69
-152 l67 -65 -6 -47 c-3 -26 -10 -57 -17 -69 -10 -19 -17 -21 -65 -15 -71 8
-126 28 -176 63 -38 26 -48 28 -132 27 -68 -1 -128 -10 -236 -37 -229 -56
-231 -56 -336 -7 -61 29 -109 61 -152 101 -79 74 -199 159 -224 159 -27 0 -58
18 -58 34 0 7 -18 48 -39 92 -21 43 -45 99 -52 122 -13 46 -48 84 -156 170
-61 49 -153 152 -199 224 -15 23 -34 39 -53 43 -22 5 -38 20 -66 67 -19 33
-34 62 -33 63 2 1 31 21 65 43 60 41 81 70 67 93 -3 6 -16 9 -28 7 -19 -4 -21
-1 -17 39 2 34 -5 60 -32 117 -37 79 -108 191 -152 241 l-26 30 5 -50z"/>
<path d="M8420 10852 c-86 -11 -145 -59 -143 -118 2 -65 74 -114 169 -114 95
0 174 52 174 115 0 30 -30 75 -63 92 -35 18 -98 30 -137 25z"/>
<path d="M12600 10850 c-55 -7 -80 -20 -114 -61 -37 -44 -34 -75 14 -120 45
-43 83 -54 166 -47 41 4 63 12 92 35 50 40 61 73 39 117 -27 57 -106 87 -197
76z"/>
<path d="M14570 10853 c-86 -13 -144 -60 -144 -118 0 -123 260 -160 327 -46 9
16 17 36 17 46 0 68 -106 131 -200 118z"/>
<path d="M4812 9989 l3 -851 167 -1 168 -2 0 853 0 852 -170 0 -170 0 2 -851z"/>
<path d="M10722 9988 l3 -852 23 1 c12 0 87 1 167 2 l145 1 0 350 0 349 43 11
c255 66 400 183 457 369 59 191 -20 391 -203 511 -115 75 -276 110 -515 110
l-122 0 2 -852z m401 561 c92 -60 129 -209 80 -319 -19 -43 -78 -106 -122
-130 l-21 -11 0 246 c0 135 4 245 8 245 5 0 29 -14 55 -31z"/>
<path d="M6388 10556 c-59 -57 -140 -130 -180 -163 -53 -43 -74 -66 -76 -86
l-3 -27 75 0 75 0 3 -497 3 -498 23 -40 c61 -106 246 -155 377 -101 l35 15 0
86 0 85 -27 -7 c-45 -12 -76 -6 -95 17 -17 21 -18 53 -16 479 l3 456 68 3 67
3 0 84 0 85 -70 0 -70 0 0 105 0 105 -42 0 c-41 -1 -49 -6 -150 -104z"/>
<path d="M14005 10553 c-60 -58 -140 -130 -177 -161 -56 -44 -68 -60 -68 -83
l0 -29 70 0 70 0 0 -465 c0 -302 4 -482 11 -517 28 -132 198 -208 364 -163
l65 17 0 90 c0 88 0 89 -22 82 -41 -13 -82 -6 -101 17 -16 20 -17 54 -15 478
l3 456 65 1 65 1 3 87 3 86 -71 0 -70 0 0 105 0 105 -42 0 c-41 -1 -49 -7
-153 -107z"/>
<path d="M5346 10394 c-47 -36 -86 -69 -86 -72 0 -3 10 -16 23 -30 l22 -24 3
-566 2 -567 138 3 c75 1 143 5 150 7 9 4 12 119 11 545 0 406 3 545 11 556 15
17 81 19 98 2 9 -9 12 -147 12 -558 0 -301 2 -549 4 -551 2 -2 70 -3 150 -1
l146 3 0 575 c0 627 1 615 -58 678 -43 45 -97 66 -177 66 -76 0 -128 -18 -181
-63 l-31 -26 -24 25 c-26 28 -89 64 -112 64 -8 0 -53 -30 -101 -66z"/>
<path d="M7043 10439 c-99 -38 -178 -144 -214 -289 -10 -39 -14 -124 -14 -295
0 -273 11 -344 71 -465 57 -114 183 -211 324 -251 52 -14 217 -18 273 -6 l37
8 0 111 0 110 -27 -6 c-78 -17 -132 -18 -181 -2 -58 19 -121 76 -151 133 -22
44 -45 154 -34 163 5 4 40 17 78 29 90 29 162 70 220 127 118 114 145 321 63
482 -60 120 -154 172 -306 171 -62 0 -102 -6 -139 -20z m174 -235 c18 -31 23
-55 23 -117 0 -44 -6 -92 -14 -111 -14 -34 -81 -96 -103 -96 -17 0 -18 206 -2
265 13 47 50 106 64 102 6 -2 20 -21 32 -43z"/>
<path d="M7685 10394 c-44 -36 -82 -68 -84 -70 -3 -2 5 -14 16 -27 43 -47 43
-45 43 -614 l0 -548 147 2 148 2 3 448 3 448 26 38 c36 52 109 103 176 124
l57 17 0 123 0 123 -43 0 c-70 0 -125 -35 -177 -113 l-45 -67 -15 42 c-8 24
-21 53 -28 66 -13 23 -103 72 -132 72 -8 0 -51 -30 -95 -66z"/>
<path d="M8955 10436 c-104 -48 -183 -175 -220 -351 -9 -44 -19 -145 -22 -225
-17 -443 103 -709 330 -736 165 -19 299 105 358 333 45 178 46 496 0 674 -38
150 -112 259 -206 303 -73 35 -168 36 -240 2z m167 -301 c16 -62 16 -493 0
-636 -23 -209 -85 -175 -112 60 -10 79 -10 152 0 319 13 243 19 289 45 328
l18 27 18 -24 c10 -13 24 -46 31 -74z"/>
<path d="M9572 10388 l-83 -71 31 -30 30 -29 2 -560 3 -559 145 0 145 0 5 449
5 450 31 39 c47 58 110 101 175 121 l59 17 0 123 0 122 -45 0 c-79 0 -143 -45
-198 -140 -17 -28 -28 -39 -31 -30 -2 8 -10 32 -16 52 -17 54 -105 120 -159
117 -9 0 -53 -32 -99 -71z"/>
<path d="M11982 10440 c-177 -47 -290 -153 -361 -339 -24 -63 -25 -78 -29
-311 -4 -269 8 -387 48 -495 40 -106 129 -175 225 -175 43 1 114 35 157 77
l36 36 34 -38 c18 -21 53 -47 77 -58 l44 -19 85 86 86 85 -21 23 c-49 54 -48
40 -51 611 l-3 537 -127 -1 c-92 0 -147 -5 -200 -19z m36 -677 l-3 -438 -31
-3 c-41 -4 -60 16 -81 86 -15 49 -18 98 -18 342 0 324 7 363 71 420 67 59 64
78 62 -407z"/>
<path d="M12995 10417 c-28 -23 -66 -54 -85 -68 l-35 -27 25 -27 25 -27 5
-564 5 -565 145 0 145 0 3 548 c2 608 -2 573 68 573 61 0 59 18 64 -577 l5
-544 143 -2 143 -2 -3 595 -3 595 -25 35 c-55 78 -114 104 -224 98 -68 -3 -80
-7 -134 -44 l-59 -41 -23 24 c-28 29 -92 63 -117 62 -10 0 -41 -19 -68 -42z"/>
<path d="M14935 10399 c-106 -80 -103 -75 -74 -105 l24 -26 5 -565 5 -565 145
0 145 0 3 548 c2 609 -2 574 67 574 67 0 65 22 67 -579 l3 -542 143 -2 142 -2
0 586 0 586 -23 44 c-16 29 -40 54 -72 74 -45 28 -56 30 -140 30 -89 0 -93 -1
-149 -38 l-57 -38 -32 25 c-39 29 -92 56 -109 56 -7 0 -49 -28 -93 -61z"/>
<path d="M16144 10440 c-102 -27 -169 -64 -236 -130 -68 -68 -118 -165 -145
-279 -26 -111 -26 -472 1 -585 34 -149 83 -228 162 -267 61 -29 147 -23 205
15 l39 26 0 -34 c0 -22 -9 -45 -23 -62 -20 -23 -34 -28 -86 -32 -41 -3 -85 1
-127 13 -36 10 -66 16 -68 14 -21 -24 -86 -162 -80 -168 5 -5 41 -19 79 -32
61 -21 88 -24 210 -24 123 1 147 4 199 24 71 28 142 91 167 147 18 39 19 84
19 715 l1 674 -123 2 c-94 2 -140 -2 -194 -17z m26 -645 l0 -425 -34 0 c-41 0
-60 16 -78 67 -19 55 -19 612 1 667 13 38 81 116 101 116 7 0 10 -148 10 -425z"/>
<path d="M8302 9795 l3 -656 143 0 143 0 -1 653 0 653 -145 3 -145 3 2 -656z"/>
<path d="M12490 9793 l0 -658 145 0 145 0 0 658 0 657 -145 0 -145 0 0 -657z"/>
<path d="M14450 9793 l0 -658 147 2 148 2 3 656 2 655 -150 0 -150 0 0 -657z"/>
<path d="M2173 10300 c-127 -30 -292 -209 -333 -360 -16 -59 -40 -215 -40
-262 0 -21 -3 -38 -6 -38 -3 0 -24 16 -47 35 -49 42 -111 64 -135 48 -10 -5
-20 -22 -24 -37 -5 -14 -11 -38 -16 -53 -13 -46 -76 -81 -187 -103 -118 -24
-178 -51 -261 -119 -78 -63 -143 -150 -205 -273 -27 -53 -91 -161 -143 -240
-242 -369 -395 -737 -396 -953 0 -99 -18 -174 -70 -305 -23 -56 -44 -117 -47
-135 -17 -103 122 -294 304 -415 91 -61 157 -77 247 -60 96 18 125 -1 239
-155 89 -120 94 -133 74 -198 -21 -66 -22 -107 -2 -133 25 -34 17 -94 -30
-219 -25 -66 -48 -136 -51 -156 -5 -32 -3 -39 25 -58 42 -30 198 -103 300
-141 108 -39 241 -54 441 -48 226 7 261 28 211 126 -25 47 -73 92 -136 126
-27 15 -84 52 -125 82 -61 44 -70 54 -50 54 56 1 164 31 187 52 31 29 30 87
-2 226 -13 59 -25 138 -27 175 l-3 68 85 28 c102 33 143 54 277 138 57 35 159
88 228 118 189 83 236 118 335 249 53 71 72 89 104 98 56 17 70 55 71 188 0
98 -2 109 -32 170 -18 36 -44 77 -58 92 -14 15 -25 28 -25 30 0 2 28 4 63 5
34 1 98 14 141 28 43 14 87 25 97 25 10 0 44 -27 76 -61 l58 -61 50 6 c28 4
111 10 185 15 74 5 147 14 162 20 30 11 48 38 40 60 -3 8 0 11 7 7 6 -4 11
-13 11 -21 0 -7 8 -16 17 -19 21 -8 43 18 43 49 0 17 9 23 43 31 42 9 43 10
105 131 59 114 66 123 100 133 47 13 129 13 137 0 4 -6 -9 -10 -32 -10 -46 0
-76 -19 -92 -57 -8 -21 -11 -177 -9 -575 l3 -546 24 -26 c23 -25 29 -26 132
-26 90 0 110 3 130 19 l24 19 3 565 2 565 -26 31 c-21 26 -33 31 -68 31 -37 0
-43 3 -53 30 l-11 30 -89 0 c-131 0 -132 -1 -258 -245 -6 -11 -23 -21 -38 -23
-24 -3 -27 0 -27 28 0 72 -41 93 -66 34 l-15 -35 -27 28 c-15 16 -58 51 -95
77 l-68 49 -107 8 c-59 4 -136 17 -172 28 -77 25 -106 26 -151 7 -36 -15 -50
-14 -199 9 -52 8 -158 19 -235 24 -217 16 -261 36 -316 143 -46 91 -112 332
-140 516 -10 65 -10 88 -1 103 17 26 15 47 -8 98 -13 27 -15 41 -7 38 140 -62
152 -63 194 -12 36 42 52 59 85 88 15 14 32 43 38 66 10 39 12 41 60 47 44 6
50 9 50 30 0 13 -9 47 -21 76 -16 40 -20 66 -16 107 3 29 1 93 -4 142 l-10 89
35 31 c20 17 41 47 47 67 9 33 8 43 -16 90 -55 110 -190 210 -332 247 -62 16
-81 17 -130 5z m-244 -2334 c20 -21 55 -51 79 -66 46 -30 45 -34 -5 -44 -40
-9 -83 12 -117 57 -21 28 -26 45 -26 93 l1 59 16 -30 c8 -16 32 -47 52 -69z"/>
<path d="M5302 8245 c-9 -19 -17 -25 -30 -21 -10 4 -34 -1 -52 -11 -28 -14
-42 -15 -85 -6 -33 7 -66 8 -95 2 -92 -19 -117 -21 -124 -10 -11 17 -26 13
-26 -6 0 -14 -2 -14 -21 3 -19 17 -38 19 -160 19 -119 0 -140 3 -151 18 -11
14 -19 15 -51 6 -22 -6 -41 -8 -44 -6 -2 3 -13 -3 -24 -14 -18 -18 -19 -43
-21 -566 -3 -494 -5 -551 -20 -579 -29 -54 -62 -68 -160 -68 l-86 -1 -7 -70
c-9 -83 -28 -141 -58 -173 -15 -16 -18 -27 -12 -36 50 -68 49 -66 29 -82 -12
-9 -15 -17 -8 -20 6 -3 20 -11 30 -19 18 -13 18 -14 -4 -44 -27 -36 -28 -51
-4 -51 16 -1 16 -2 -2 -15 -10 -7 -15 -18 -12 -23 3 -6 -1 -12 -9 -16 -21 -8
-19 -37 3 -42 13 -4 18 -18 20 -71 l3 -66 -25 7 c-22 5 -26 3 -26 -14 0 -13 7
-20 19 -20 21 0 31 -26 31 -83 0 -30 5 -39 24 -47 13 -5 26 -13 29 -17 10 -17
123 -9 141 10 21 21 14 21 66 -4 29 -14 45 -18 48 -10 5 14 52 15 52 0 0 -7
24 -10 69 -8 39 2 73 0 77 -4 15 -14 159 -8 182 9 20 14 22 14 22 0 0 -15 17
-21 50 -18 8 1 29 3 47 3 18 1 30 5 28 9 -3 4 2 14 11 21 14 11 18 10 30 -6 8
-10 14 -15 14 -9 0 5 5 1 11 -8 12 -22 29 -23 29 -3 0 21 12 19 33 -5 23 -28
46 -25 58 8 9 24 12 25 22 11 14 -19 184 -49 277 -49 50 0 60 3 60 18 1 15 2
15 15 -2 15 -19 15 -19 15 3 0 19 4 21 23 15 12 -4 24 -10 27 -15 3 -5 48 -11
100 -14 66 -4 98 -10 106 -20 13 -17 54 -9 54 11 0 17 16 18 26 3 3 -6 18 -9
32 -6 16 3 35 -2 48 -12 15 -12 36 -17 61 -15 21 2 88 5 150 6 105 3 113 4
122 26 11 23 10 23 89 6 56 -12 258 -5 295 11 49 20 116 22 128 4 7 -11 11
-12 18 -1 10 16 182 16 246 0 41 -11 183 -11 222 -2 14 4 29 -2 42 -15 21 -21
23 -21 80 -6 79 20 130 19 203 -6 34 -11 64 -16 67 -12 13 19 69 52 75 45 4
-4 12 1 17 10 5 10 17 14 29 11 12 -3 22 1 26 11 8 21 67 21 88 1 17 -17 36
-20 36 -5 0 18 29 11 42 -10 8 -12 24 -20 40 -20 18 0 29 7 33 20 8 25 12 25
72 -1 26 -11 78 -23 114 -26 62 -5 67 -4 100 24 27 24 39 29 57 22 12 -5 25
-14 27 -21 4 -10 44 -14 148 -16 78 -1 214 -7 302 -12 88 -5 253 -10 368 -10
177 0 207 2 207 15 0 8 9 15 19 15 10 0 21 -7 25 -15 8 -22 23 -18 29 6 5 20
10 21 79 14 40 -4 75 -11 78 -16 3 -4 147 -11 320 -14 260 -5 316 -9 324 -21
16 -21 124 -15 148 9 22 21 61 22 82 2 8 -8 17 -11 20 -6 3 4 24 5 48 1 25 -5
51 -4 65 3 17 8 44 5 110 -11 73 -18 108 -21 208 -17 66 3 270 7 452 9 303 5
336 7 370 25 35 17 49 18 198 10 221 -13 901 -12 945 2 19 5 88 12 152 14 65
2 126 9 137 15 29 15 71 12 116 -10 22 -11 49 -19 59 -20 18 0 18 2 -4 25 -26
28 -15 33 36 15 35 -12 186 -29 198 -22 4 2 2 9 -5 14 -9 6 -5 6 11 1 14 -4
79 -8 145 -8 66 0 142 -4 169 -9 39 -7 48 -7 41 4 -6 10 0 11 26 7 105 -18
274 -27 613 -31 289 -3 380 -7 386 -16 6 -10 32 -10 121 -2 99 9 116 9 131 -5
16 -14 20 -14 42 1 19 12 31 13 50 6 16 -6 27 -6 31 1 4 5 17 1 32 -11 19 -15
35 -18 66 -15 23 3 91 7 151 10 64 2 112 9 116 15 5 8 41 7 130 -5 68 -9 128
-18 132 -21 5 -3 17 5 27 17 l18 22 30 -21 c38 -27 70 -34 113 -23 33 7 31 8
-32 16 -38 4 -68 11 -68 16 0 5 7 9 15 9 41 0 115 23 115 36 0 21 15 17 34 -8
l17 -23 -4 27 -4 26 35 -18 c36 -20 58 -18 46 3 -5 9 -4 9 6 0 7 -7 25 -9 41
-6 17 3 35 0 45 -8 13 -10 17 -10 24 1 6 10 12 11 22 3 23 -18 71 -25 158 -22
134 4 143 3 156 -16 11 -15 17 -15 48 -5 20 6 40 9 45 6 5 -4 12 -2 16 4 14
23 175 -1 213 -32 9 -8 12 -6 12 6 0 9 5 16 10 16 6 0 10 -6 10 -14 0 -17 30
-30 43 -17 5 5 1 12 -12 16 -26 8 -27 21 -1 35 24 13 26 27 3 32 -14 3 -14 5
-2 15 12 10 21 9 44 -3 15 -8 33 -13 39 -11 14 5 16 77 2 76 -6 -1 -31 -1 -56
0 -41 1 -43 2 -28 17 9 10 34 20 55 23 29 5 39 11 41 29 3 18 -1 22 -21 22
-14 0 -29 6 -35 13 -9 10 -4 16 23 26 29 10 35 17 35 41 0 19 -4 28 -12 25 -7
-3 -31 11 -53 30 -38 33 -39 34 -15 35 24 1 24 1 6 15 -19 14 -19 15 6 15 34
0 56 26 41 48 -7 12 -23 16 -49 15 l-39 -2 29 23 c30 25 28 46 -4 46 -27 0
-34 17 -10 23 18 4 19 9 10 33 -12 31 5 51 27 32 7 -5 20 -8 28 -4 17 6 21 36
4 36 -7 0 -8 11 -4 31 5 23 3 34 -12 44 -14 11 -15 14 -3 15 12 0 12 2 2 9
-10 6 -10 10 3 21 21 17 19 30 -5 30 -11 0 -20 7 -20 15 0 8 -6 15 -13 15 -8
0 -13 11 -12 28 0 20 5 27 20 25 23 -2 55 14 55 27 0 6 -9 10 -21 10 -11 0
-17 5 -14 10 3 6 17 10 31 10 l24 0 0 145 c0 125 -2 145 -16 145 -8 0 -12 5
-9 10 4 6 -5 10 -19 10 -21 0 -26 5 -26 25 0 18 5 25 18 25 21 0 52 29 52 48
0 7 -16 12 -37 12 -30 1 -34 3 -21 11 14 8 15 15 8 35 -16 41 -12 64 10 64 25
0 25 12 1 75 -33 90 -33 91 -6 123 l26 30 -23 8 c-20 6 -21 7 -4 20 10 7 15
17 12 22 -3 6 1 12 9 16 21 8 19 37 -2 42 -14 4 -19 18 -21 71 l-3 66 25 -7
c22 -5 26 -3 26 14 0 12 -4 19 -9 15 -17 -10 -41 38 -41 81 l0 42 -52 7 c-29
4 -64 14 -77 22 -21 13 -32 13 -107 -2 -79 -17 -84 -17 -110 0 -20 13 -41 16
-90 13 -35 -2 -64 -1 -64 2 0 3 -73 5 -163 5 -151 1 -163 -1 -179 -20 -18 -20
-18 -20 -33 -1 -11 15 -15 16 -16 5 0 -8 -4 -4 -9 9 -12 28 -30 29 -30 1 0
-21 -1 -21 -26 5 -34 33 -52 33 -65 -1 -9 -25 -12 -26 -23 -11 -13 18 -187 48
-281 48 -44 0 -55 -3 -55 -16 0 -14 -3 -14 -15 -4 -12 10 -15 10 -15 -4 0 -20
-24 -21 -43 -1 -16 15 -74 22 -265 30 -57 2 -118 9 -136 15 -18 6 -55 8 -82 4
-49 -6 -92 -9 -151 -12 -21 -1 -33 -8 -36 -19 -4 -14 -5 -12 -6 5 -1 27 -14
28 -32 3 -13 -18 -19 -18 -119 -5 -72 10 -119 12 -150 5 -25 -5 -56 -9 -70 -9
-14 1 -40 -5 -57 -13 -26 -10 -42 -11 -75 -2 -29 8 -57 8 -88 2 -98 -21 -120
-22 -137 -8 -12 11 -17 11 -20 2 -4 -10 -10 -10 -26 -1 -19 10 -278 24 -382
20 -50 -2 -319 -19 -322 -21 -1 0 -9 -8 -17 -17 -15 -14 -19 -13 -45 5 -37 26
-58 26 -79 1 -17 -20 -17 -20 -87 5 -93 33 -154 33 -193 0 -36 -30 -63 -32
-86 -6 -9 10 -25 17 -35 14 -9 -2 -154 3 -322 11 -408 21 -669 22 -669 1 0 -8
-9 -15 -20 -15 -11 0 -23 7 -26 15 -4 8 -13 15 -21 15 -8 0 -12 -4 -9 -8 2 -4
1 -14 -3 -21 -7 -10 -26 -12 -80 -6 -39 4 -71 11 -71 16 0 5 -27 9 -61 9 -33
0 -69 4 -79 10 -13 7 -19 6 -23 -3 -3 -9 -36 -10 -138 -5 -74 4 -289 10 -479
13 -190 3 -381 10 -425 15 -106 13 -378 10 -405 -5 -13 -7 -42 -9 -80 -4 -33
4 -119 5 -192 3 -105 -3 -134 -7 -140 -19 -13 -22 -48 -19 -48 4 0 32 -16 33
-71 5 -41 -20 -61 -25 -93 -20 -53 7 -475 21 -591 20 -257 -4 -458 -13 -530
-24 -56 -8 -117 -10 -205 -4 -155 11 -359 7 -466 -8 -75 -10 -198 -7 -287 8
-33 5 -36 4 -30 -12 5 -14 3 -16 -13 -10 -60 23 -151 29 -519 31 -491 3 -470
2 -489 21 -14 14 -31 14 -140 4 -69 -6 -136 -8 -150 -4 -15 3 -32 1 -39 -4 -9
-8 -34 -8 -82 -1 -39 5 -95 9 -125 8 -30 -1 -71 3 -91 10 -29 9 -134 10 -134
1 0 -2 -35 -4 -77 -5 -51 -2 -78 1 -78 8 0 8 -4 7 -11 0 -8 -8 -19 -9 -38 -1
-14 5 -80 12 -147 15 l-120 5 -12 -27z m71 -313 c59 -46 109 -88 112 -92 2 -4
-23 -29 -58 -56 -128 -99 -265 -243 -370 -390 l-37 -51 83 -48 c212 -123 312
-239 352 -407 66 -282 -109 -570 -390 -637 -69 -17 -209 -15 -275 5 -145 42
-251 135 -319 277 -55 115 -65 168 -58 306 4 84 12 141 31 206 69 234 236 488
466 709 121 115 329 277 345 268 6 -3 58 -44 118 -90z m3136 65 c102 -36 174
-86 228 -161 164 -226 165 -495 2 -821 -136 -270 -367 -530 -653 -733 -33 -23
-63 -42 -67 -42 -4 0 -59 42 -123 94 l-116 94 68 53 c97 75 257 240 335 344
36 50 67 93 67 97 0 3 -33 24 -73 46 -96 53 -184 120 -246 188 -226 247 -145
671 156 815 135 65 284 74 422 26z m1463 -64 c59 -46 110 -88 113 -92 2 -5
-20 -27 -49 -50 -124 -93 -279 -255 -380 -397 l-36 -52 67 -37 c287 -157 412
-363 375 -617 -38 -263 -255 -450 -522 -449 -253 1 -430 138 -509 395 -25 83
-28 230 -6 334 54 259 233 546 497 798 109 104 318 265 333 256 6 -3 58 -43
117 -89z m879 68 c189 -60 314 -219 326 -416 10 -148 -31 -257 -131 -353 -34
-32 -70 -64 -81 -70 -20 -11 -19 -11 5 -29 72 -50 153 -140 185 -208 111 -227
0 -522 -240 -641 -72 -36 -83 -38 -189 -42 -130 -5 -189 8 -299 65 -223 117
-317 436 -192 649 29 49 96 122 155 168 l35 27 -25 16 c-53 35 -138 131 -163
185 -41 86 -53 188 -33 284 21 103 56 173 126 248 65 68 141 113 230 133 75
17 210 10 291 -16z m2109 -486 l0 -515 105 0 105 0 0 -105 0 -104 -102 -3
-103 -3 -3 -267 -2 -268 -190 0 -190 0 -2 268 -3 267 -327 3 -328 2 0 58 c1
57 1 57 138 253 75 108 252 361 392 562 l255 367 128 0 127 0 0 -515z m952
504 c174 -37 323 -189 391 -400 48 -145 61 -255 61 -494 0 -166 -4 -243 -17
-315 -37 -203 -96 -329 -202 -436 -110 -111 -217 -149 -369 -133 -233 24 -395
199 -465 502 -55 233 -51 585 10 822 83 329 321 511 591 454z m1269 -7 c175
-49 304 -190 369 -402 49 -164 55 -215 55 -495 -1 -247 -2 -266 -28 -375 -47
-203 -137 -352 -261 -432 -76 -49 -148 -70 -240 -70 -144 1 -250 47 -349 151
-141 150 -207 384 -207 739 0 186 14 315 46 441 88 338 340 519 615 443z
m1232 3 c89 -23 156 -62 222 -129 74 -74 114 -142 154 -262 52 -155 65 -253
65 -499 0 -239 -13 -342 -60 -485 -66 -196 -186 -332 -338 -383 -71 -24 -206
-22 -289 3 -110 34 -212 122 -280 242 -150 262 -169 856 -37 1184 85 212 254
341 450 343 31 1 82 -6 113 -14z m-10303 -880 l0 -885 -205 0 -205 0 0 696 0
695 -67 -2 c-78 -3 -89 8 -41 44 64 47 502 337 510 337 4 0 8 -398 8 -885z
m920 688 c-21 -104 -100 -501 -176 -883 -75 -382 -138 -697 -140 -699 -8 -10
-394 23 -394 33 0 6 20 113 44 236 25 124 86 434 136 690 50 256 95 487 100
513 6 26 10 52 10 57 0 6 -64 10 -155 10 l-155 0 0 115 0 115 384 0 383 0 -37
-187z m446 -579 c77 -37 108 -146 62 -213 -50 -74 -144 -97 -211 -51 -48 33
-69 73 -69 130 0 112 115 183 218 134z m4211 -12 c43 -31 66 -85 60 -140 -9
-80 -72 -135 -153 -134 -88 2 -147 64 -148 155 0 53 21 88 75 125 43 30 120
27 166 -6z m5628 -150 c-10 -69 -17 -42 -8 34 5 43 9 58 11 40 2 -17 1 -50 -3
-74z m-78 -754 c-3 -8 -6 -5 -6 6 -1 11 2 17 5 13 3 -3 4 -12 1 -19z"/>
<path d="M4860 7036 c-48 -113 -54 -317 -11 -411 23 -53 76 -115 98 -115 25 0
81 69 98 121 21 62 24 193 7 255 -7 22 -25 60 -41 84 -27 41 -104 110 -123
110 -5 0 -17 -20 -28 -44z"/>
<path d="M8290 7734 c-54 -46 -73 -97 -78 -205 -5 -113 11 -182 57 -245 34
-46 105 -99 120 -90 5 4 20 32 32 64 20 49 23 76 24 192 0 147 -10 189 -62
257 -40 53 -56 57 -93 27z"/>
<path d="M9460 7036 c-48 -113 -54 -317 -11 -411 23 -52 76 -115 96 -115 7 0
28 16 48 35 100 97 98 342 -5 456 -26 28 -91 79 -102 79 -4 0 -15 -20 -26 -44z"/>
<path d="M10640 7723 c-42 -66 -53 -114 -48 -213 5 -90 32 -164 76 -204 20
-18 21 -18 46 7 54 54 71 104 71 212 0 107 -20 172 -67 222 -31 33 -45 29 -78
-24z"/>
<path d="M10657 6980 c-43 -51 -59 -98 -64 -196 -7 -111 13 -185 63 -241 l34
-38 34 37 c43 45 66 119 66 213 0 96 -23 168 -69 217 l-37 40 -27 -32z"/>
<path d="M12446 7196 c-66 -95 -122 -178 -124 -184 -3 -9 31 -12 127 -12 l131
0 0 185 c0 102 -3 185 -7 184 -5 0 -62 -78 -127 -173z"/>
<path d="M13792 7724 c-18 -21 -38 -59 -47 -84 -26 -80 -39 -268 -39 -575 -1
-336 9 -411 64 -499 49 -77 67 -72 115 29 38 79 49 219 50 585 0 277 -3 335
-17 393 -18 69 -43 124 -76 166 l-19 23 -31 -38z"/>
<path d="M15030 7721 c-48 -69 -64 -151 -80 -436 -18 -317 -10 -504 30 -635
20 -67 65 -139 88 -140 19 0 69 85 81 138 16 70 30 243 37 462 10 308 -17 508
-81 603 -31 45 -47 46 -75 8z"/>
<path d="M16283 7728 c-33 -36 -51 -80 -62 -149 -33 -196 -42 -702 -16 -849
16 -92 51 -173 89 -209 l24 -22 35 56 c23 36 39 79 46 119 18 101 31 335 31
551 0 275 -23 406 -87 493 -29 38 -33 39 -60 10z"/>
<path d="M7690 6021 c0 -14 18 -23 31 -15 8 4 7 9 -2 15 -18 11 -29 11 -29 0z"/>
</g>
</svg>
